<svg xmlns="http://www.w3.org/2000/svg" viewBox="0 0 1438.67 354.7"><defs><style>.cls-1{fill:#fff;}</style></defs><title>Asset 1</title><g id="Layer_2" data-name="Layer 2"><g id="Layer_2-2" data-name="Layer 2"><path class="cls-1" d="M280.72,4.37H344.6a4.27,4.27,0,0,1,4.27,4.27V346.06a4.27,4.27,0,0,1-4.27,4.27H273.44a4.27,4.27,0,0,1-4.27-4.26l-.41-132.85a4.27,4.27,0,0,0-8.21-1.62L204.19,347.69a4.27,4.27,0,0,1-3.94,2.64H148.11a4.27,4.27,0,0,1-3.93-2.61L87.4,213.29a4.27,4.27,0,0,0-8.2,1.66V346.06a4.27,4.27,0,0,1-4.27,4.27H4.27A4.27,4.27,0,0,1,0,346.06V8.64A4.27,4.27,0,0,1,4.27,4.37H68.64a4.27,4.27,0,0,1,3.91,2.56L171,231.57a4.27,4.27,0,0,0,7.82,0l98-224.63A4.27,4.27,0,0,1,280.72,4.37Z"/><path class="cls-1" d="M466.11,333.08q-39.36-21.62-60.49-62t-21.14-94.26q0-53.93,21.38-93.78a149.49,149.49,0,0,1,60.49-61.47Q505.46,0,558.43,0t92.08,21.62a146.5,146.5,0,0,1,60,61.47q20.89,39.85,20.89,93.78t-20.89,94.26q-20.9,40.34-60,62T558.43,354.7Q505.46,354.7,466.11,333.08Zm153.3-75.56q22.11-27.7,22.11-80.66,0-52.47-22.11-79.93t-61-27.45q-38.88,0-60.74,27.21t-21.86,80.17q0,53.46,21.86,80.9t60.74,27.45Q597.3,285.22,619.41,257.52Z"/><path class="cls-1" d="M1018,4.37h61.45A13.75,13.75,0,0,1,1092,23.82L947.07,342.27a13.75,13.75,0,0,1-12.52,8.06H879.86a13.75,13.75,0,0,1-12.52-8.06L722.43,23.82A13.75,13.75,0,0,1,734.95,4.37h64.31a13.75,13.75,0,0,1,12.64,8.33l83.48,194.66a13.75,13.75,0,0,0,25.25.07l84.77-194.8A13.75,13.75,0,0,1,1018,4.37Z"/><path class="cls-1" d="M1322.51,182l113.92,150.78a10.93,10.93,0,0,1-8.72,17.52h-78.83a10.93,10.93,0,0,1-8.89-4.57l-65.13-90.93a10.93,10.93,0,0,0-17.76,0l-65.57,91a10.93,10.93,0,0,1-8.87,4.54h-78.42a10.93,10.93,0,0,1-8.73-17.51L1209.07,182a10.93,10.93,0,0,0,0-13.15l-110.63-147a10.93,10.93,0,0,1,8.73-17.51h77.89A10.93,10.93,0,0,1,1194,9l62.74,88a10.93,10.93,0,0,0,17.74.08l64.08-88.17a10.93,10.93,0,0,1,8.84-4.5h78.29a10.93,10.93,0,0,1,8.7,17.55L1322.54,168.81A10.93,10.93,0,0,0,1322.51,182Z"/></g></g></svg>